<svg version="1" xmlns="http://www.w3.org/2000/svg" width="353.333" height="353.333" viewBox="0 0 265.000000 265.000000"><path d="M121.7 1.1C78.2 5 38 31.2 17.2 69.3c-18.5 33.8-21.1 77.4-6.8 112C31.3 231.9 78.9 264 133 264c51.5 0 96.6-28.5 119.4-75.4 8.9-18.4 11.6-31.8 11.6-57.6 0-18.1-.2-20.3-2.9-31.1-5.8-23.3-17.2-43.2-34.6-60.5-22.4-22.3-50.9-35.7-81.2-38.3-6.5-.6-12.2-1-12.8-1-.5.1-5.4.6-10.8 1zm12 40.4c10.1 3.2 19.2 8.6 25.5 15.3l5.1 5.4-6.6 6.6-6.6 6.6-4.4-4.6C138.2 62 128.4 58 114.9 58c-8.2 0-16.4 2-21.9 5.3-4.9 3-12.7 10.4-16.2 15.5-9.3 13.5-10 34.5-1.6 49.2 15.4 27 50.9 31.7 72.3 9.6l6.2-6.5 6.3 6.4 6.3 6.3-2.2 3c-3.8 5.4-14 13.9-20.6 17.1-32.7 16.1-69.9 3.5-86.1-29.4-11.6-23.5-9.1-49.7 6.9-71.2 5.9-7.9 13.1-13.6 23.3-18.4 10.6-5 13.7-5.7 27.1-5.8 9.3-.1 12.5.3 19 2.4zm45.2 54.1c9.9 2.4 20.2 7.9 27.6 14.6 3.6 3.3 6.5 6.5 6.5 7.1 0 .6-2.8 3.9-6.1 7.3l-6.1 6.2-5.2-5.2c-2.8-2.8-7.6-6.3-10.6-7.7-23.2-11.2-48.8-2.3-61 21.2l-4.1 7.9-6.2-.1c-9.3-.1-11.2-.9-11-4.4.1-1.6 2.2-7 4.6-12 8.9-18.4 25.4-31.2 46.2-35.8 4.8-1.1 19.4-.6 25.4.9zm-66 79.4h7.8l3.3 6.6c8.4 17.1 28.3 28.1 45.6 25.4 12.5-2 21.4-6.7 28.9-15.4l4.5-5.1 6.1 6.1c7.3 7.4 7.3 8.1-1.1 16.4-6.6 6.4-18.4 13.1-27.6 15.5-7.5 1.9-25.1 2-32.4 0-17.2-4.6-32.2-17-40.4-33.5-5.3-10.8-7.1-17.8-4.2-16.7 1 .4 5.3.7 9.5.7z"/></svg>